<svg fill="none" viewBox="0 0 512 512" xmlns="http://www.w3.org/2000/svg"><path d="M422.88 89.126A236 236 0 0 0 20 255.996v196.67a39.33 39.33 0 0 0 39.33 39.33H256a235.998 235.998 0 0 0 231.462-282.035A235.992 235.992 0 0 0 422.88 89.126Zm-257.07 194.69a39.342 39.342 0 0 1-65.465-16.392 39.34 39.34 0 1 1 65.465 16.392Zm118 0a39.342 39.342 0 0 1-65.465-16.392 39.338 39.338 0 0 1 45.315-50.008 39.336 39.336 0 0 1 31.67 38.58 39.35 39.35 0 0 1-11.52 27.82Zm118 0a39.342 39.342 0 0 1-65.465-16.392 39.338 39.338 0 0 1 45.315-50.008 39.336 39.336 0 0 1 31.67 38.58 39.35 39.35 0 0 1-11.52 27.82Z" fill="#e61610" class="fill-000000"></path></svg>